<?xml version="1.0" encoding="iso-8859-1"?>
<!-- Generator: Adobe Illustrator 19.0.0, SVG Export Plug-In . SVG Version: 6.00 Build 0)  -->
<svg version="1.1" id="Capa_1" xmlns="http://www.w3.org/2000/svg" xmlns:xlink="http://www.w3.org/1999/xlink" x="0px" y="0px"
	 viewBox="0 0 512 512" style="enable-background:new 0 0 512 512;" xml:space="preserve">
<circle style="fill:#947165;" cx="255.25" cy="240.55" r="227.23"/>
<path style="opacity:0.12;enable-background:new    ;" d="M255.254,13.316c-4.55,0-9.065,0.149-13.55,0.413
	c17.335,1.02,34.143,3.995,50.219,8.687c-11.722-1.758-23.711-2.697-35.923-2.697c-70.936,0-134.694,30.709-178.718,79.554
	c-20.543,25.845-35.579,56.261-43.324,89.482c3.499,3.345,8.848,4.728,13.957,2.201c0.077-0.038,0.155-0.077,0.232-0.115
	l17.694-8.878c22.303-11.19,49.086-8.326,68.518,7.329l0,0c17.659,14.227,41.551,17.99,62.729,9.882l21.972-8.413
	c28.076-10.75,59.081-11.051,87.361-0.849l9.135,3.296c33.614,12.128,70.806,9.331,102.229-7.686l0,0
	c9.217-4.991,19.774-6.429,29.761-4.334c5.108,18.923,7.84,38.822,7.84,59.36c0,120.946-94.495,219.806-213.681,226.818
	c4.484,0.264,8.999,0.413,13.55,0.413c125.496,0,227.231-101.735,227.231-227.231S380.75,13.316,255.254,13.316z"/>
<path style="fill:#BC90D9;" d="M489.034,237.91H21.474c-9.917,0-17.158,9.371-14.657,18.967l61.572,236.251
	C71.286,504.243,81.323,512,92.81,512h324.888c11.487,0,21.524-7.757,24.421-18.872l61.572-236.251
	C506.193,247.281,498.951,237.91,489.034,237.91z"/>
<path style="fill:#FFABCA;" d="M60.565,463.108l7.824,30.02C71.286,504.243,81.323,512,92.81,512h324.888
	c11.487,0,21.524-7.757,24.421-18.872l7.824-30.02H60.565z"/>
<path style="opacity:0.12;enable-background:new    ;" d="M96.973,237.91H21.474c-9.917,0-17.158,9.371-14.658,18.967
	l61.572,236.251C71.286,504.243,81.323,512,92.81,512h55.564L96.973,237.91z"/>
<path style="opacity:0.12;enable-background:new    ;" d="M415.027,237.91h75.499c9.917,0,17.158,9.371,14.658,18.967
	l-61.572,236.251C440.714,504.243,430.677,512,419.19,512h-55.565L415.027,237.91z"/>
<path style="fill:#FFABCA;" d="M256,0C153.035,0,65.188,64.696,30.872,155.652c-3.948,10.464,7.018,20.542,17.043,15.584
	c0.077-0.038,0.154-0.077,0.232-0.115l17.694-8.878c22.303-11.19,49.086-8.326,68.518,7.329l0,0
	c17.659,14.227,41.552,17.99,62.729,9.882l21.972-8.413c28.076-10.75,59.081-11.051,87.361-0.849l9.135,3.296
	c33.614,12.128,70.806,9.331,102.229-7.686l0,0c13.139-7.115,29.004-7.019,42.056,0.255l0,0c0.935,0.521,1.876,1.004,2.822,1.449
	c10.245,4.818,21.063-5.418,16.873-15.936C444.16,62.768,357.417,0,256,0z"/>
<path style="opacity:0.12;enable-background:new    ;" d="M479.536,151.57C444.16,62.768,357.417,0,256,0
	c-4.864,0-9.694,0.145-14.487,0.43c95.144,5.641,175.395,66.588,209.078,151.14c1.499,3.763,1.07,7.487-0.56,10.502
	c3.38,0.918,6.677,2.24,9.809,3.985l0,0c0.935,0.521,1.876,1.004,2.823,1.449C472.908,172.324,483.726,162.088,479.536,151.57z"/>
<path style="fill:#ED6EA4;" d="M407.731,43.61c-13.01-7.37-29.538-2.773-36.869,10.273c-7.315,13.017-2.499,29.524,10.492,36.883
	l39.395,22.317c4.066,2.303,9.229,0.874,11.532-3.191l22.317-39.395c7.36-12.991,3.004-29.626-9.962-37.03
	C431.642,26.046,415.101,30.601,407.731,43.61z"/>
<path style="fill:#FFFFFF;" d="M246.358,61.974c-14.287-4.41-29.446,3.624-33.81,17.938c-4.354,14.282,3.888,29.373,18.155,33.777
	l43.264,13.353c4.465,1.378,9.202-1.124,10.58-5.589L297.9,78.189c4.403-14.267-3.417-29.581-17.669-34.033
	C265.947,39.693,250.767,47.686,246.358,61.974z"/>
<path style="fill:#ED6EA4;" d="M125.43,42.506c-3.112-14.625-17.515-23.946-32.141-20.781c-14.593,3.158-23.754,17.71-20.646,32.314
	l9.425,44.286c0.973,4.57,5.466,7.487,10.037,6.514l44.286-9.425c14.604-3.108,24.165-17.4,21.107-32.015
	C154.433,48.753,140.054,39.394,125.43,42.506z"/>
<path style="fill:#394049;" d="M268.068,369.613c-4.29,0-8.252-1.435-11.43-3.849c-3.178,2.415-7.14,3.849-11.43,3.849
	c-10.438,0-18.93-8.492-18.93-18.93c0-4.142,3.357-7.5,7.5-7.5s7.5,3.358,7.5,7.5c0,2.167,1.763,3.93,3.93,3.93
	c2.167,0,3.93-1.763,3.93-3.93c0-4.142,3.357-7.5,7.5-7.5s7.5,3.358,7.5,7.5c0,2.167,1.763,3.93,3.93,3.93
	c2.166,0,3.929-1.763,3.929-3.93c0-4.142,3.357-7.5,7.5-7.5c4.142,0,7.5,3.358,7.5,7.5
	C286.997,361.122,278.506,369.613,268.068,369.613z"/>
<g>
	<path style="fill:#FFFFFF;" d="M182.231,375.999h-13.2c-4.143,0-7.5-3.358-7.5-7.5s3.357-7.5,7.5-7.5h13.2
		c4.143,0,7.5,3.358,7.5,7.5S186.374,375.999,182.231,375.999z"/>
	<path style="fill:#FFFFFF;" d="M344.245,375.999h-13.2c-4.143,0-7.5-3.358-7.5-7.5s3.357-7.5,7.5-7.5h13.2
		c4.143,0,7.5,3.358,7.5,7.5S348.388,375.999,344.245,375.999z"/>
</g>
<g>
	<path style="fill:#394049;" d="M184.523,350.885c-4.143,0-7.5-3.358-7.5-7.5c0-0.767-0.624-1.391-1.391-1.391
		s-1.391,0.624-1.391,1.391c0,4.142-3.357,7.5-7.5,7.5s-7.5-3.358-7.5-7.5c0-9.038,7.353-16.391,16.391-16.391
		c9.038,0,16.391,7.353,16.391,16.391C192.023,347.527,188.665,350.885,184.523,350.885z"/>
	<path style="fill:#394049;" d="M346.536,350.885c-4.143,0-7.5-3.358-7.5-7.5c0-0.767-0.624-1.391-1.391-1.391
		s-1.391,0.624-1.391,1.391c0,4.142-3.357,7.5-7.5,7.5s-7.5-3.358-7.5-7.5c0-9.038,7.352-16.391,16.391-16.391
		c9.038,0,16.391,7.353,16.391,16.391C354.036,347.527,350.679,350.885,346.536,350.885z"/>
</g>
<g>
</g>
<g>
</g>
<g>
</g>
<g>
</g>
<g>
</g>
<g>
</g>
<g>
</g>
<g>
</g>
<g>
</g>
<g>
</g>
<g>
</g>
<g>
</g>
<g>
</g>
<g>
</g>
<g>
</g>
</svg>
