<svg id="Flat" height="512" viewBox="0 0 512 512" width="512" xmlns="http://www.w3.org/2000/svg"><g><g><path d="m8 280h304a0 0 0 0 1 0 0v224a0 0 0 0 1 0 0h-284a20 20 0 0 1 -20-20v-204a0 0 0 0 1 0 0z" fill="#f94267"/><path d="m72 280h64v224h-64z" fill="#fed672"/></g><g><rect fill="#f94267" height="80" rx="20" transform="matrix(.855 .519 -.519 .855 132.99 -149.203)" width="368" x="149.395" y="123.297"/><g fill="#fed672"><path d="m252 36.547h68a60 60 0 0 1 60 60v4a0 0 0 0 1 0 0h-68a60 60 0 0 1 -60-60v-4a0 0 0 0 1 0 0z" transform="matrix(.855 .519 -.519 .855 81.341 -153.917)"/><path d="m421.453 102.917h68a0 0 0 0 1 0 0v4a60 60 0 0 1 -60 60h-68a0 0 0 0 1 0 0v-4a60 60 0 0 1 60-60z" transform="matrix(-.855 -.519 .519 -.855 719.289 470.882)"/><path d="m293.395 123.297h80v80h-80z" transform="matrix(.855 .519 -.519 .855 132.99 -149.203)"/></g></g><g><path d="m48 128-14.142 25.858-25.858 14.142 25.858 14.142 14.142 25.858 14.142-25.858 25.858-14.142-25.858-14.142z" fill="#fed672"/><path d="m189.26 250.153-15.41-4.306c1.229-4.4 2.438-9.541 2.088-14.339-.294-4.038-1.847-7.64-4.053-9.4-2.308-1.84-5.946-2.432-10.157-3.119-1.813-.3-3.687-.6-5.6-1.033-10.141-2.292-18.452-7.8-23.4-15.512-6.189-9.632-6.3-22.39-.271-31.024l13.119 9.16c-2.3 3.295-2.031 9.1.613 13.216 3.6 5.607 9.986 7.766 13.47 8.554 1.441.325 3 .579 4.648.847 5.616.915 11.98 1.952 17.56 6.4 5.75 4.586 9.408 12.146 10.035 20.743.523 7.254-1.042 14.086-2.642 19.813z" fill="#fed672"/><circle cx="104" cy="40" fill="#fed672" r="32"/><g fill="#f94267"><path d="m24 80h16v16h-16z"/><path d="m112 120h16v16h-16z"/><path d="m88 232h16v16h-16z"/><path d="m224 200h16v16h-16z"/></g></g><g><rect fill="#4ab4e6" height="160" rx="10" width="272" x="232" y="344"/><path d="m408 440v-16l96-63.885v15.885z" fill="#3d95d6"/><path d="m328 440-96-64v-15.886l96 63.886z" fill="#3d95d6"/><g fill="#fed672"><path d="m337.668 408h-1.858a35.428 35.428 0 0 0 -22.286 8l-.31.25a30.662 30.662 0 0 1 -39 0l-10.214-8.25v4c0 33.137 24.944 60 55.714 60h18.572c16.688 0 30.163-14.816 29.7-32.9-.441-17.429-14.128-31.1-30.318-31.1z"/><path d="m398.332 408h1.858a35.428 35.428 0 0 1 22.286 8l.31.25a30.662 30.662 0 0 0 39 0l10.214-8.25v4c0 33.137-24.944 60-55.714 60h-18.572c-16.688 0-30.163-14.816-29.7-32.9.441-17.429 14.128-31.1 30.318-31.1z"/></g></g></g></svg>